<svg xmlns="http://www.w3.org/2000/svg" viewBox="0 0 263.95 222.3"><defs><style>.cls-1{fill:#fff;}</style></defs><title>화이트</title><g id="레이어_2" data-name="레이어 2"><g id="레이어_1-2" data-name="레이어 1"><path class="cls-1" d="M204.93,73H188.31a95.51,95.51,0,1,0-122,113.5l21.36,31.69a9.44,9.44,0,0,0,15.64,0L121.61,191h83.32a59,59,0,0,0,59-59h0A59,59,0,0,0,204.93,73ZM36.47,95.5a59,59,0,1,1,59,59A59,59,0,0,1,36.47,95.5Z"/><path class="cls-1" d="M125.1,91.63,82.49,68.1a4.33,4.33,0,0,0-6.43,3.79V119a4.33,4.33,0,0,0,6.43,3.8L125.1,99.23A4.34,4.34,0,0,0,125.1,91.63Z"/></g></g></svg>